<svg id="SvgjsSvg1001" width="288" height="288" xmlns="http://www.w3.org/2000/svg" version="1.1" xmlns:xlink="http://www.w3.org/1999/xlink" xmlns:svgjs="http://svgjs.com/svgjs"><defs id="SvgjsDefs1002"></defs><g id="SvgjsG1008"><svg xmlns="http://www.w3.org/2000/svg" viewBox="0 0 256 256" width="288" height="288"><g fill="none" stroke-miterlimit="10" stroke-width="0" transform="matrix(2.81 0 0 2.81 1.407 1.407)"><path fill="#ffffff" d="M45 34.78c-9.589 0-17.39-7.801-17.39-17.39C27.61 7.801 35.411 0 45 0s17.391 7.801 17.391 17.39C62.391 26.979 54.589 34.78 45 34.78zM45 7c-5.729 0-10.39 4.661-10.39 10.39S39.271 27.78 45 27.78c5.729 0 10.391-4.661 10.391-10.39S50.729 7 45 7zM69.417 90c-1.933 0-3.5-1.567-3.5-3.5V61.756c0-7.28-5.923-13.203-13.203-13.203H37.287c-7.28 0-13.203 5.923-13.203 13.203V86.5c0 1.933-1.567 3.5-3.5 3.5s-3.5-1.567-3.5-3.5V61.756c0-11.14 9.063-20.203 20.203-20.203h15.427c11.14 0 20.203 9.063 20.203 20.203V86.5C72.917 88.433 71.35 90 69.417 90z" class="color000 svgShape"></path><path fill="#ffffff" d="M 53.53 67.716 H 48.5 v -5.03 c 0 -1.933 -1.567 -3.5 -3.5 -3.5 c -1.933 0 -3.5 1.567 -3.5 3.5 v 5.03 h -5.031 c -1.933 0 -3.5 1.567 -3.5 3.5 s 1.567 3.5 3.5 3.5 H 41.5 v 5.031 c 0 1.933 1.567 3.5 3.5 3.5 c 1.933 0 3.5 -1.567 3.5 -3.5 v -5.031 h 5.03 c 1.933 0 3.5 -1.567 3.5 -3.5 S 55.463 67.716 53.53 67.716 z" class="color000 svgShape"></path></g></svg></g></svg>