<svg id="svg" version="1.1" xmlns="http://www.w3.org/2000/svg" xmlns:xlink="http://www.w3.org/1999/xlink" width="400" height="400" viewBox="0, 0, 400,400"><g id="svgg"><path id="path0" d="M294.553 32.888 C 294.601 37.945,294.741 42.069,294.865 42.052 C 295.341 41.987,296.479 42.483,296.346 42.698 C 296.269 42.822,296.797 43.261,297.519 43.674 C 298.240 44.086,299.072 44.565,299.366 44.737 C 299.885 45.041,304.435 48.184,307.509 50.363 C 332.303 67.935,354.272 94.566,367.299 122.840 C 402.218 198.629,381.121 290.823,317.103 342.192 C 316.693 342.521,315.921 343.149,315.388 343.588 C 311.952 346.417,303.622 352.530,301.684 353.643 C 301.144 353.954,300.456 354.496,300.156 354.847 C 299.856 355.199,299.610 355.393,299.610 355.280 C 299.610 355.166,299.154 355.397,298.597 355.792 C 297.038 356.897,296.410 357.268,295.479 357.634 L 294.622 357.972 294.622 366.802 C 294.622 371.658,294.539 375.888,294.437 376.202 C 294.300 376.622,294.330 376.663,294.549 376.357 C 294.713 376.128,294.902 375.965,294.969 375.996 C 295.220 376.111,296.804 375.259,296.804 375.008 C 296.804 374.864,297.093 374.747,297.446 374.747 C 297.857 374.747,298.007 374.615,297.863 374.382 C 297.711 374.137,297.807 374.082,298.156 374.216 C 298.442 374.326,298.675 374.314,298.675 374.189 C 298.675 374.065,299.131 373.765,299.688 373.522 C 300.246 373.279,301.263 372.722,301.949 372.283 C 303.963 370.995,304.154 370.878,305.259 370.259 C 306.188 369.739,310.434 366.959,314.960 363.908 C 315.790 363.348,318.253 361.535,320.433 359.879 C 381.758 313.293,410.711 238.046,396.546 162.063 C 389.582 124.704,370.633 88.306,343.906 60.951 C 334.400 51.222,328.389 45.999,316.912 37.500 C 315.037 36.111,305.291 29.618,305.082 29.618 C 304.964 29.618,304.255 29.197,303.507 28.683 C 302.760 28.168,302.061 27.747,301.954 27.747 C 301.847 27.747,301.253 27.403,300.633 26.982 C 300.013 26.561,299.404 26.279,299.279 26.357 C 299.154 26.434,298.968 26.278,298.866 26.011 C 298.763 25.744,298.556 25.602,298.406 25.694 C 298.256 25.787,297.737 25.524,297.254 25.108 C 296.771 24.693,296.262 24.424,296.122 24.510 C 295.983 24.596,295.869 24.510,295.869 24.318 C 295.869 24.126,295.738 24.050,295.579 24.149 C 295.419 24.247,295.200 24.186,295.093 24.011 C 294.550 23.134,294.473 24.407,294.553 32.888 M161.956 55.816 C 161.167 56.688,161.595 57.658,163.352 58.980 C 166.062 61.019,165.781 53.217,165.963 131.411 C 166.141 208.007,165.995 202.617,168.062 208.940 C 173.002 224.057,195.608 242.182,209.607 242.250 C 212.008 242.261,212.090 242.149,200.258 255.049 C 199.435 255.946,199.394 256.969,198.592 296.648 C 198.348 308.691,198.166 312.958,197.881 313.243 C 197.230 313.893,168.146 313.828,166.170 313.171 C 162.162 311.840,159.735 307.645,159.240 301.194 C 159.161 300.159,158.781 300.541,146.445 314.075 L 133.733 328.023 134.598 329.612 C 138.136 336.112,151.199 344.835,161.304 347.445 L 164.147 348.179 199.844 348.291 C 219.478 348.352,235.717 348.289,235.931 348.150 C 236.788 347.595,236.378 346.108,235.152 345.326 C 231.720 343.136,231.972 347.386,231.964 291.582 L 231.956 242.557 233.341 242.557 C 234.102 242.557,234.812 242.416,234.918 242.245 C 235.024 242.073,235.278 241.935,235.482 241.938 C 235.705 241.941,235.667 242.063,235.386 242.245 C 235.010 242.488,235.059 242.548,235.638 242.552 C 236.034 242.554,236.276 242.424,236.176 242.262 C 236.075 242.098,236.626 241.925,237.419 241.872 L 238.843 241.777 227.757 226.189 L 216.670 210.600 225.535 210.444 C 230.410 210.359,234.504 210.183,234.633 210.055 C 234.761 209.926,234.247 209.821,233.489 209.820 L 232.112 209.820 232.033 206.937 C 231.878 201.315,230.373 195.050,228.045 190.335 C 226.663 187.538,225.730 186.013,225.526 186.218 C 225.437 186.306,225.731 186.960,226.179 187.670 C 229.133 192.349,231.185 199.535,231.548 206.469 L 231.740 210.133 218.364 210.126 C 205.974 210.119,204.894 210.076,203.705 209.536 C 201.102 208.354,199.092 204.229,198.146 198.129 C 197.960 196.929,198.281 179.316,198.888 157.443 C 199.047 151.699,199.259 141.668,199.359 135.152 C 199.459 128.636,199.607 121.060,199.689 118.316 C 199.771 115.573,199.925 108.418,200.031 102.416 C 200.146 95.858,200.348 91.350,200.537 91.118 C 200.776 90.823,204.218 90.711,215.078 90.647 L 229.306 90.563 214.925 90.488 C 202.934 90.426,200.484 90.485,200.183 90.848 C 199.925 91.159,199.651 99.661,199.221 120.700 C 198.366 162.576,197.954 181.754,197.881 183.001 C 197.823 183.996,196.535 182.280,182.151 162.029 L 166.485 139.973 166.484 115.271 C 166.484 101.685,166.391 83.915,166.277 75.782 L 166.070 60.994 164.976 59.783 C 164.374 59.117,163.477 58.363,162.982 58.107 C 162.275 57.741,162.103 57.462,162.179 56.802 L 162.276 55.963 171.941 55.876 C 177.256 55.828,193.320 55.676,207.638 55.537 L 233.671 55.286 198.100 55.234 C 162.715 55.183,162.525 55.186,161.956 55.816 M220.802 135.481 L 220.109 135.967 220.109 151.204 C 220.109 164.639,220.167 166.498,220.599 166.930 C 221.014 167.345,221.956 167.409,226.756 167.350 L 232.424 167.280 226.968 167.193 C 221.856 167.112,221.478 167.065,220.966 166.449 C 220.274 165.615,220.111 136.678,220.795 135.994 C 221.058 135.731,223.030 135.605,227.420 135.572 C 231.909 135.538,233.100 135.460,231.645 135.297 C 227.646 134.847,221.559 134.951,220.802 135.481 M261.092 287.919 C 261.193 296.150,261.350 304.741,261.442 307.011 C 261.708 313.575,260.530 318.353,256.316 327.811 C 254.045 332.908,255.859 333.435,258.786 328.527 C 267.422 314.048,270.616 304.627,270.616 293.634 L 270.616 286.491 266.045 280.034 C 263.532 276.483,261.347 273.437,261.192 273.266 C 261.021 273.079,260.982 278.937,261.092 287.919 " stroke="none" fill="#a156e4" fill-rule="evenodd"></path><path id="path1" d="M164.145 3.099 C 163.802 3.238,162.948 3.433,162.248 3.531 C 152.783 4.854,124.861 13.305,121.434 15.883 C 121.263 16.012,120.000 16.575,118.628 17.134 C 117.256 17.693,115.889 18.367,115.588 18.633 C 115.288 18.898,115.043 19.019,115.043 18.902 C 115.043 18.786,114.622 18.908,114.108 19.174 L 113.172 19.657 113.172 28.549 L 113.172 37.441 115.433 36.208 C 118.188 34.706,128.229 30.208,133.125 28.283 C 142.316 24.669,156.659 20.468,163.355 19.429 C 164.564 19.241,165.916 18.756,165.316 18.726 C 165.015 18.711,164.926 16.934,164.926 10.938 C 164.926 5.015,165.019 3.132,165.316 3.012 C 165.578 2.907,165.552 2.854,165.238 2.850 C 164.981 2.848,164.489 2.960,164.145 3.099 M175.729 56.196 C 175.861 56.411,181.331 64.135,187.885 73.362 L 199.801 90.138 213.757 90.111 C 221.433 90.096,227.759 90.038,227.815 89.982 C 227.871 89.926,222.477 82.217,215.829 72.851 L 203.741 55.821 189.615 55.814 C 178.393 55.808,175.539 55.887,175.729 56.196 M261.701 71.634 C 262.412 72.468,262.510 72.489,262.510 71.811 C 262.510 71.525,262.417 71.384,262.305 71.496 C 262.192 71.609,261.876 71.530,261.603 71.320 C 261.299 71.086,261.337 71.208,261.701 71.634 M263.073 73.500 C 265.818 77.385,268.831 86.258,270.140 94.310 C 270.419 96.025,270.728 97.919,270.827 98.519 C 270.926 99.119,271.072 99.432,271.151 99.215 C 271.628 97.905,268.638 84.403,266.907 80.049 C 265.290 75.982,263.429 72.642,262.779 72.642 C 262.608 72.642,262.740 73.028,263.073 73.500 M238.504 110.266 C 238.504 116.738,238.205 116.339,242.968 116.222 L 246.564 116.134 242.815 110.834 C 240.754 107.919,238.940 105.401,238.785 105.238 C 238.617 105.061,238.504 107.082,238.504 110.266 M271.707 115.978 C 271.598 116.155,269.869 116.306,267.713 116.327 C 262.325 116.379,261.022 116.830,266.127 116.877 C 269.999 116.912,272.175 116.577,272.175 115.948 C 272.175 115.575,271.947 115.590,271.707 115.978 M262.510 135.308 C 262.767 135.474,265.082 135.598,267.654 135.584 C 270.475 135.568,272.021 135.458,271.551 135.308 C 270.387 134.935,261.933 134.935,262.510 135.308 M232.268 135.713 C 232.268 135.765,240.892 147.936,251.433 162.759 L 270.597 189.712 270.606 245.674 L 270.614 301.637 269.834 304.547 C 269.034 307.535,266.807 313.510,265.645 315.788 C 265.285 316.493,265.121 317.069,265.280 317.069 C 265.688 317.069,268.563 310.142,269.932 305.862 L 271.083 302.260 271.151 222.603 C 271.222 139.555,271.185 141.715,272.547 139.361 C 273.136 138.343,273.139 138.306,272.586 138.804 C 271.539 139.750,270.870 142.285,270.659 146.112 L 270.460 149.726 265.472 142.687 L 260.483 135.648 246.376 135.634 C 238.617 135.626,232.268 135.662,232.268 135.713 M163.047 161.820 C 162.794 161.980,162.275 162.113,161.894 162.115 C 161.376 162.119,156.937 166.798,144.435 180.518 L 127.670 198.916 127.479 206.473 C 127.374 210.629,127.299 224.412,127.312 237.101 C 127.326 249.790,127.412 257.445,127.503 254.112 L 127.670 248.053 142.634 231.627 L 157.599 215.201 157.763 223.345 C 157.881 229.195,157.947 226.245,157.997 212.871 L 158.067 194.254 158.751 193.888 C 159.218 193.638,160.459 193.580,162.649 193.704 L 165.861 193.886 165.861 177.691 L 165.861 161.496 164.926 161.496 C 164.388 161.496,163.989 161.662,163.986 161.886 C 163.982 162.184,163.925 162.188,163.744 161.903 C 163.587 161.656,163.350 161.628,163.047 161.820 M198.906 165.783 C 198.905 166.255,198.822 167.412,198.722 168.355 L 198.541 170.070 200.347 168.238 L 202.154 166.407 200.765 165.680 C 198.989 164.752,198.909 164.756,198.906 165.783 M169.110 236.867 C 173.963 236.925,176.712 237.076,176.982 237.300 C 177.595 237.809,177.594 267.570,176.981 268.079 C 176.701 268.311,173.393 268.454,166.926 268.514 L 157.288 268.603 167.255 268.596 L 177.223 268.589 177.622 267.810 C 178.258 266.567,178.045 237.348,177.397 236.938 C 177.127 236.768,173.693 236.671,169.291 236.710 L 161.652 236.777 169.110 236.867 M232.108 291.816 C 232.108 318.995,232.145 330.113,232.190 316.524 C 232.235 302.935,232.235 280.698,232.190 267.108 C 232.145 253.519,232.108 264.638,232.108 291.816 M122.105 268.195 C 121.907 268.321,127.007 268.395,133.437 268.361 C 139.867 268.326,143.375 268.259,141.231 268.211 C 131.465 267.993,122.432 267.986,122.105 268.195 M131.508 287.685 C 134.134 287.737,138.342 287.737,140.861 287.684 C 143.380 287.632,141.231 287.589,136.087 287.589 C 130.943 287.590,128.882 287.632,131.508 287.685 M159.625 295.650 L 159.781 303.196 159.865 295.891 C 159.911 291.873,159.842 288.477,159.710 288.345 C 159.578 288.213,159.540 291.500,159.625 295.650 M159.962 304.977 C 159.926 305.755,161.179 308.963,161.519 308.963 C 161.678 308.963,161.808 308.823,161.808 308.652 C 161.808 308.480,161.677 308.340,161.518 308.340 C 161.259 308.340,160.950 307.682,160.731 306.664 C 160.689 306.471,160.575 306.103,160.477 305.846 C 160.379 305.588,160.229 305.168,160.143 304.910 C 160.019 304.540,159.982 304.554,159.962 304.977 M161.810 309.469 C 161.807 310.013,164.437 312.304,165.762 312.915 C 166.804 313.394,168.083 313.467,175.994 313.502 L 185.035 313.541 176.306 313.335 C 166.124 313.094,164.972 312.810,162.511 309.937 C 162.126 309.487,161.811 309.277,161.810 309.469 M168.569 348.480 C 171.516 348.531,176.426 348.531,179.481 348.480 C 182.536 348.429,180.125 348.387,174.123 348.387 C 168.122 348.387,165.622 348.428,168.569 348.480 M112.959 362.707 C 113.076 363.012,113.172 367.112,113.172 371.818 L 113.172 380.374 113.874 380.641 C 114.260 380.787,114.700 380.912,114.852 380.918 C 115.004 380.924,115.215 381.046,115.320 381.189 C 115.626 381.607,116.552 382.059,120.961 383.942 C 133.897 389.466,148.604 394.007,160.775 396.237 C 162.630 396.576,164.497 396.932,164.926 397.027 C 165.355 397.123,165.530 397.118,165.316 397.016 C 165.019 396.875,164.926 394.975,164.926 389.088 C 164.926 383.178,165.018 381.312,165.316 381.204 C 165.669 381.075,164.954 380.893,162.734 380.548 C 162.301 380.480,161.389 380.270,160.708 380.081 C 160.027 379.893,157.436 379.241,154.949 378.633 C 145.227 376.256,134.932 372.700,125.019 368.294 C 119.422 365.806,114.865 363.591,113.661 362.773 C 112.830 362.209,112.766 362.203,112.959 362.707 " stroke="none" fill="#7870ec" fill-rule="evenodd"></path><path id="path2" d="M187.373 0.208 C 183.222 0.487,173.270 1.587,170.850 2.033 C 167.729 2.609,166.500 2.840,165.861 2.973 C 165.604 3.026,165.288 3.081,165.160 3.094 C 164.724 3.138,164.879 18.702,165.316 18.739 C 166.095 18.805,167.584 18.640,167.887 18.453 C 168.058 18.348,168.549 18.231,168.978 18.194 C 169.407 18.156,172.564 17.772,175.994 17.341 C 186.273 16.048,207.236 15.279,211.380 16.043 C 211.808 16.122,213.670 16.256,215.516 16.340 L 218.873 16.493 218.789 8.642 L 218.706 0.791 217.459 0.778 C 216.773 0.770,216.072 0.683,215.900 0.584 C 215.311 0.244,191.505 -0.070,187.373 0.208 M162.510 56.013 C 161.687 56.345,162.166 57.340,163.668 58.419 C 166.498 60.452,166.485 60.384,166.485 72.942 L 166.485 83.867 182.619 106.572 C 198.540 128.977,198.754 129.260,198.845 128.005 C 198.895 127.306,199.116 118.737,199.335 108.963 C 199.554 99.189,199.794 91.027,199.867 90.826 C 199.940 90.624,194.469 82.662,187.709 73.133 L 175.419 55.807 169.159 55.831 C 165.716 55.845,162.724 55.927,162.510 56.013 M252.867 63.944 C 256.077 66.149,257.651 67.424,260.094 69.800 C 261.251 70.925,262.198 71.697,262.198 71.514 C 262.198 70.735,255.832 65.276,252.655 63.330 C 250.172 61.809,250.301 62.182,252.867 63.944 M250.818 116.602 C 250.294 116.735,252.557 116.840,255.963 116.840 C 259.306 116.840,262.463 116.733,262.977 116.602 C 263.501 116.468,261.239 116.364,257.833 116.364 C 254.489 116.364,251.333 116.471,250.818 116.602 M251.286 135.324 C 253.367 135.694,263.086 135.680,262.510 135.308 C 262.244 135.136,259.422 135.020,255.963 135.040 C 251.860 135.063,250.339 135.155,251.286 135.324 M221.122 135.823 C 220.820 135.947,220.733 138.703,220.733 148.115 L 220.733 160.246 223.092 163.522 L 225.451 166.797 232.064 166.797 C 241.035 166.797,240.062 165.486,240.062 177.579 L 240.062 187.390 255.057 208.504 C 263.304 220.117,270.179 229.751,270.334 229.914 C 270.502 230.091,270.612 222.041,270.607 209.961 L 270.597 189.712 251.422 162.744 L 232.247 135.776 226.879 135.719 C 223.927 135.687,221.337 135.734,221.122 135.823 M166.001 172.097 C 166.001 178.012,166.043 180.433,166.095 177.475 C 166.146 174.517,166.146 169.677,166.095 166.719 C 166.043 163.761,166.001 166.181,166.001 172.097 M198.723 164.734 C 198.632 164.972,198.612 165.779,198.679 166.527 L 198.800 167.888 198.854 166.407 C 198.917 164.709,198.912 164.711,200.762 165.679 L 202.148 166.404 200.368 168.270 L 198.588 170.136 198.392 184.289 C 198.151 201.687,198.767 205.259,202.587 208.614 L 203.673 209.567 204.682 208.525 C 205.237 207.951,210.034 202.709,215.342 196.874 L 224.994 186.265 223.747 184.559 C 223.061 183.621,220.453 180.835,217.953 178.370 C 215.452 175.904,213.445 173.754,213.492 173.592 C 213.539 173.430,213.423 173.393,213.235 173.509 C 212.834 173.757,211.322 172.443,211.561 172.055 C 211.651 171.910,211.532 171.866,211.298 171.955 C 211.064 172.045,210.601 171.809,210.269 171.431 C 209.937 171.052,209.862 170.858,210.103 171.000 C 210.407 171.179,210.469 171.142,210.305 170.876 C 210.175 170.667,209.875 170.570,209.638 170.661 C 209.401 170.752,209.063 170.558,208.887 170.229 C 208.430 169.374,203.519 166.239,200.652 164.970 C 198.863 164.179,198.933 164.188,198.723 164.734 M142.557 231.713 L 127.514 248.224 127.511 253.730 C 127.508 262.152,126.706 265.249,124.029 267.189 L 122.884 268.020 139.462 268.226 C 148.580 268.340,160.740 268.400,166.485 268.360 L 176.929 268.288 163.732 268.127 L 150.536 267.966 163.966 253.227 C 171.353 245.120,177.397 238.309,177.397 238.090 C 177.397 237.021,176.749 236.945,167.708 236.945 C 160.159 236.945,158.707 236.872,158.381 236.479 C 158.100 236.141,157.940 233.175,157.797 225.607 L 157.599 215.201 142.557 231.713 M199.144 245.518 C 199.019 248.776,198.842 256.633,198.751 262.977 C 198.661 269.322,198.522 276.407,198.443 278.722 C 198.364 281.037,198.221 289.104,198.126 296.648 C 197.976 308.439,197.827 312.803,197.565 313.078 C 197.532 313.112,194.630 313.223,191.115 313.324 L 184.723 313.509 191.014 313.575 C 198.750 313.655,198.285 313.926,198.285 309.331 C 198.285 307.500,198.573 291.642,198.925 274.091 C 199.543 243.288,199.621 233.154,199.144 245.518 M254.245 246.672 C 257.167 249.088,258.740 251.229,259.812 254.245 C 260.101 255.059,260.522 280.093,260.721 308.340 L 260.764 314.419 259.583 317.963 C 258.934 319.912,257.783 322.984,257.026 324.790 C 255.565 328.279,255.155 329.930,256.467 327.046 C 260.882 317.337,262.049 311.590,261.214 303.663 C 260.916 300.833,260.803 293.752,260.799 277.786 C 260.794 250.627,260.841 250.855,254.404 246.575 L 253.001 245.643 254.245 246.672 M148.463 287.684 C 150.297 287.739,153.383 287.739,155.322 287.684 C 157.260 287.629,155.760 287.584,151.988 287.584 C 148.215 287.584,146.629 287.629,148.463 287.684 M126.474 287.971 C 126.360 288.085,126.283 289.874,126.303 291.946 C 126.324 294.018,126.429 295.337,126.537 294.876 C 126.646 294.416,128.043 292.627,129.642 290.901 L 132.549 287.763 129.616 287.763 C 128.002 287.763,126.589 287.857,126.474 287.971 M263.408 320.265 C 259.306 328.446,257.190 331.718,255.992 331.732 C 255.296 331.740,255.259 331.786,255.725 332.057 C 257.042 332.825,260.017 328.303,264.610 318.550 C 265.920 315.769,265.013 317.062,263.408 320.265 M254.912 329.618 C 254.632 330.661,254.677 331.411,255.017 331.411 C 255.184 331.411,255.248 331.225,255.161 330.997 C 255.073 330.769,255.144 330.208,255.319 329.750 C 255.493 329.292,255.515 328.917,255.368 328.917 C 255.220 328.917,255.015 329.232,254.912 329.618 M190.413 348.480 C 193.542 348.531,198.663 348.531,201.793 348.480 C 204.922 348.429,202.362 348.387,196.103 348.387 C 189.844 348.387,187.284 348.429,190.413 348.480 M165.316 381.189 C 164.819 381.389,164.743 396.859,165.238 396.921 C 165.678 396.976,166.159 397.103,166.251 397.189 C 166.294 397.228,166.680 397.292,167.108 397.330 C 167.537 397.368,168.098 397.482,168.355 397.584 C 168.613 397.685,169.454 397.838,170.226 397.924 C 170.998 398.010,173.172 398.290,175.058 398.547 C 182.948 399.621,187.036 399.842,199.065 399.843 C 205.752 399.844,212.416 399.741,213.874 399.614 C 215.331 399.488,217.015 399.342,217.615 399.291 L 218.706 399.199 218.789 391.160 C 218.850 385.345,218.777 383.180,218.528 383.334 C 218.338 383.452,216.898 383.597,215.327 383.657 C 213.756 383.717,211.787 383.849,210.951 383.949 C 203.805 384.807,183.946 383.860,171.293 382.058 C 170.594 381.958,169.611 381.846,169.110 381.807 C 168.608 381.769,168.043 381.642,167.854 381.525 C 167.665 381.408,167.209 381.370,166.841 381.441 C 166.474 381.512,166.173 381.438,166.173 381.276 C 166.173 380.961,165.938 380.937,165.316 381.189 " stroke="none" fill="#846beb" fill-rule="evenodd"></path><path id="path3" d="M112.313 19.849 C 112.098 19.935,112.014 20.156,112.127 20.340 C 112.243 20.527,112.188 20.583,112.001 20.468 C 111.685 20.272,110.850 20.671,104.754 23.929 C 99.294 26.847,90.975 32.006,84.485 36.498 C 55.432 56.606,31.885 85.584,16.230 120.499 C -5.499 168.959,-5.314 232.388,16.696 280.501 C 17.150 281.495,18.225 283.850,19.084 285.737 C 22.418 293.060,28.605 303.875,34.244 312.237 C 43.414 325.833,56.465 340.622,67.950 350.429 C 69.054 351.372,70.527 352.638,71.222 353.242 C 77.785 358.942,88.829 366.805,97.584 372.010 C 100.604 373.805,106.839 377.241,107.077 377.241 C 107.179 377.241,107.812 377.605,108.484 378.050 C 109.157 378.495,109.855 378.767,110.037 378.655 C 110.218 378.543,110.366 378.623,110.366 378.833 C 110.366 379.043,110.458 379.124,110.569 379.012 C 110.681 378.901,110.926 378.991,111.115 379.214 C 111.303 379.436,111.843 379.782,112.315 379.982 L 113.172 380.345 113.172 371.645 C 113.172 361.989,113.048 361.501,110.557 361.405 C 110.405 361.399,110.194 361.255,110.089 361.086 C 109.985 360.917,108.496 359.949,106.781 358.935 C 97.463 353.424,86.572 345.603,79.530 339.367 C 78.946 338.849,77.683 337.729,76.724 336.878 C 74.621 335.011,64.868 325.272,63.128 323.301 C 22.663 277.466,7.229 218.404,20.291 159.377 C 29.148 119.351,50.959 84.355,84.368 56.565 C 90.063 51.827,105.369 41.421,109.108 39.743 C 109.702 39.477,110.264 39.156,110.355 39.030 C 110.679 38.585,112.221 37.724,112.694 37.724 C 113.113 37.724,113.172 36.604,113.172 28.683 C 113.172 23.710,113.067 19.653,112.938 19.666 C 112.810 19.680,112.528 19.762,112.313 19.849 M203.897 55.948 C 203.897 56.025,209.312 63.706,215.931 73.017 L 227.964 89.945 229.882 90.273 C 235.268 91.192,238.107 94.963,238.432 101.628 L 238.591 104.894 242.626 110.585 L 246.660 116.276 259.232 116.361 C 266.146 116.408,271.744 116.350,271.672 116.234 C 271.600 116.117,271.657 115.949,271.800 115.861 C 272.127 115.659,272.089 108.477,271.759 107.950 C 271.624 107.736,271.641 107.560,271.795 107.560 C 271.950 107.560,271.983 106.948,271.867 106.188 C 271.753 105.433,271.705 104.513,271.762 104.143 C 271.819 103.771,271.731 103.552,271.566 103.654 C 271.385 103.766,271.305 103.162,271.362 102.125 C 271.418 101.122,271.337 100.485,271.167 100.590 C 271.007 100.689,270.911 100.509,270.953 100.190 C 270.995 99.871,270.943 99.119,270.838 98.519 C 270.733 97.919,270.419 96.025,270.140 94.310 C 268.643 85.101,265.639 76.869,262.021 72.056 C 257.516 66.064,246.052 59.012,236.639 56.443 C 234.457 55.848,203.897 55.385,203.897 55.948 M140.046 73.032 C 138.276 75.627,133.838 83.890,132.005 88.003 C 130.030 92.434,128.223 97.298,127.501 100.129 C 126.902 102.472,126.890 104.100,126.890 181.252 C 126.890 238.310,126.794 260.440,126.540 261.637 C 125.843 264.927,124.066 267.123,121.517 267.848 C 120.786 268.056,120.054 268.343,119.891 268.486 C 119.728 268.628,128.146 268.712,138.597 268.671 L 157.599 268.597 139.673 268.437 C 124.458 268.302,121.893 268.215,122.718 267.867 C 124.073 267.295,125.483 265.751,126.328 263.913 L 127.045 262.354 127.238 230.767 L 127.431 199.179 128.360 198.187 C 128.870 197.641,136.470 189.302,145.248 179.657 C 157.089 166.647,161.387 162.119,161.898 162.115 C 163.704 162.103,163.140 161.603,161.268 161.557 C 149.916 161.281,141.940 157.733,139.047 151.671 C 137.617 148.674,137.501 146.628,137.501 124.240 C 137.501 111.149,137.370 102.810,137.122 99.994 C 136.439 92.253,137.222 88.259,141.370 78.333 C 143.419 73.429,143.470 73.242,142.975 72.487 C 142.174 71.264,141.117 71.461,140.046 73.032 M271.551 135.308 C 272.006 135.454,269.900 135.570,266.485 135.589 C 263.270 135.606,260.639 135.698,260.639 135.794 C 260.639 135.890,262.849 139.062,265.549 142.843 L 270.460 149.717 270.661 146.073 C 271.000 139.912,272.970 136.840,277.241 135.814 C 279.196 135.344,277.959 134.997,274.435 135.027 C 272.118 135.047,271.058 135.150,271.551 135.308 M158.613 193.945 C 158.102 194.243,158.067 195.585,158.067 215.114 C 158.067 238.645,157.881 236.978,160.506 236.903 L 161.964 236.861 160.462 236.652 C 159.635 236.538,158.831 236.241,158.674 235.993 C 158.201 235.245,158.293 194.636,158.769 194.329 C 158.983 194.190,160.281 193.995,161.652 193.895 L 164.147 193.714 161.652 193.671 C 160.281 193.647,158.913 193.771,158.613 193.945 M126.113 287.760 C 125.109 288.870,126.256 303.989,128.006 312.705 C 130.995 327.594,135.137 334.115,146.081 341.168 C 149.923 343.644,156.667 346.944,157.067 346.544 C 157.146 346.466,156.596 346.162,155.846 345.868 C 142.838 340.777,134.183 332.253,130.533 320.940 C 127.569 311.751,124.924 289.265,126.639 287.842 C 126.990 287.551,130.858 287.437,142.507 287.373 L 157.911 287.289 142.293 287.214 C 127.043 287.141,126.662 287.154,126.113 287.760 M159.046 287.736 C 159.451 288.064,159.837 288.278,159.904 288.211 C 160.132 287.985,159.241 287.140,158.774 287.140 C 158.458 287.140,158.544 287.330,159.046 287.736 " stroke="none" fill="#657cec" fill-rule="evenodd"></path><path id="path4" d="M218.706 8.717 L 218.706 16.811 219.641 16.786 C 220.156 16.772,221.138 16.843,221.824 16.944 C 222.510 17.044,224.544 17.339,226.345 17.600 C 246.166 20.465,264.692 26.314,282.846 35.439 C 286.058 37.053,288.723 38.333,288.770 38.284 C 288.816 38.235,289.297 38.509,289.838 38.894 C 290.379 39.280,290.927 39.595,291.055 39.595 C 291.184 39.595,291.783 39.971,292.386 40.431 C 292.988 40.890,293.367 41.066,293.227 40.820 C 293.086 40.575,293.278 40.690,293.653 41.076 C 294.028 41.461,294.403 41.777,294.487 41.777 C 294.571 41.777,294.627 37.683,294.612 32.680 L 294.586 23.583 289.538 21.015 C 286.761 19.604,283.297 17.934,281.839 17.306 C 280.382 16.677,278.558 15.873,277.786 15.520 C 263.885 9.146,234.761 1.684,221.630 1.130 C 220.451 1.080,219.392 0.946,219.278 0.832 C 219.163 0.717,218.988 0.624,218.888 0.624 C 218.788 0.624,218.706 4.266,218.706 8.717 M215.121 55.495 L 196.571 55.651 216.368 55.807 L 236.165 55.963 239.536 57.130 C 241.390 57.771,244.613 59.174,246.699 60.247 C 251.013 62.467,251.509 62.678,250.195 61.741 C 246.874 59.371,237.582 55.660,234.295 55.390 C 233.952 55.362,225.323 55.409,215.121 55.495 M166.312 71.239 C 166.312 76.555,166.354 78.773,166.406 76.169 C 166.458 73.565,166.458 69.216,166.406 66.504 C 166.354 63.793,166.312 65.924,166.312 71.239 M166.485 112.013 L 166.485 139.973 182.151 162.026 L 197.818 184.078 198.032 175.359 C 198.554 154.107,198.912 137.031,198.910 133.410 L 198.909 129.485 182.982 107.065 C 174.222 94.734,166.927 84.512,166.770 84.349 C 166.597 84.170,166.485 95.095,166.485 112.013 M207.560 90.335 C 211.376 90.384,217.619 90.384,221.434 90.335 C 225.249 90.285,222.128 90.245,214.497 90.245 C 206.867 90.245,203.745 90.285,207.560 90.335 M232.801 91.624 C 233.179 91.987,233.597 92.284,233.728 92.284 C 234.280 92.284,236.328 95.013,236.985 96.624 C 237.649 98.249,237.706 98.941,237.866 107.156 C 237.993 113.758,238.137 116.049,238.440 116.353 C 238.931 116.844,247.409 117.101,250.039 116.705 C 251.372 116.503,250.296 116.411,245.207 116.290 L 238.659 116.134 238.473 107.716 C 238.283 99.146,238.146 98.103,236.877 95.557 C 236.115 94.030,234.306 92.086,233.048 91.443 L 232.112 90.965 232.801 91.624 M199.643 94.310 C 199.642 95.853,199.695 96.524,199.760 95.801 C 199.826 95.077,199.826 93.814,199.762 92.995 C 199.697 92.175,199.644 92.767,199.643 94.310 M199.336 109.431 C 199.336 111.231,199.387 111.968,199.450 111.068 C 199.513 110.168,199.513 108.694,199.450 107.794 C 199.387 106.894,199.336 107.631,199.336 109.431 M199.028 124.552 C 199.028 126.610,199.079 127.411,199.140 126.332 C 199.201 125.254,199.201 123.570,199.139 122.591 C 199.077 121.612,199.027 122.494,199.028 124.552 M231.956 135.319 C 234.766 135.635,252.758 135.609,250.974 135.292 C 250.203 135.155,245.152 135.053,239.751 135.067 C 233.839 135.081,230.737 135.182,231.956 135.319 M220.495 150.905 C 220.432 163.408,220.491 165.823,220.871 166.366 C 221.302 166.981,221.713 167.019,230.144 167.227 C 234.995 167.347,239.073 167.553,239.204 167.684 C 239.336 167.816,239.407 177.315,239.363 188.794 L 239.283 209.665 236.789 209.900 C 235.417 210.030,230.329 210.240,225.482 210.368 L 216.670 210.600 227.757 226.189 L 238.843 241.777 237.419 241.872 C 235.170 242.023,236.109 242.557,238.623 242.557 C 241.504 242.557,246.115 243.345,248.938 244.320 C 250.144 244.737,251.306 245.095,251.520 245.116 C 251.734 245.137,251.910 245.283,251.910 245.440 C 251.910 245.598,252.085 245.667,252.299 245.595 C 252.514 245.523,252.875 245.686,253.102 245.959 C 253.347 246.253,253.422 246.276,253.288 246.016 C 253.163 245.775,253.712 246.026,254.507 246.574 C 255.303 247.121,255.921 247.739,255.881 247.947 C 255.840 248.154,256.042 248.285,256.329 248.238 C 257.100 248.111,259.283 251.341,260.061 253.761 C 260.640 255.561,260.742 256.846,260.913 264.453 L 261.107 273.100 265.783 279.700 L 270.460 286.301 270.539 258.343 L 270.619 230.385 255.341 208.888 L 240.062 187.390 240.062 177.579 C 240.062 165.485,241.035 166.797,232.064 166.797 L 225.451 166.797 223.095 163.527 L 220.740 160.257 220.655 148.172 L 220.569 136.087 220.495 150.905 M209.821 170.953 C 209.821 171.021,210.888 171.960,212.192 173.039 C 215.457 175.740,222.226 182.490,223.741 184.556 L 224.989 186.259 214.521 197.743 C 208.764 204.060,204.012 209.343,203.962 209.484 C 203.768 210.036,205.756 210.124,218.520 210.128 L 231.740 210.133 231.551 206.469 C 231.250 200.645,230.034 195.608,227.755 190.755 C 226.391 187.850,224.808 185.066,224.443 184.931 C 224.289 184.874,224.162 184.629,224.162 184.386 C 224.162 184.143,222.724 182.449,220.966 180.621 C 216.964 176.459,209.821 170.262,209.821 170.953 M198.402 175.994 C 198.403 177.880,198.454 178.611,198.516 177.619 C 198.578 176.627,198.577 175.084,198.515 174.190 C 198.452 173.296,198.401 174.108,198.402 175.994 M165.990 188.153 C 165.990 191.239,166.037 192.460,166.094 190.865 C 166.150 189.270,166.150 186.745,166.093 185.253 C 166.036 183.761,165.990 185.066,165.990 188.153 M198.096 193.920 C 198.096 196.235,198.145 197.182,198.205 196.025 C 198.265 194.867,198.265 192.973,198.205 191.816 C 198.145 190.659,198.096 191.606,198.096 193.920 M163.888 253.312 L 150.536 267.966 163.714 268.047 C 170.961 268.092,177.006 268.013,177.147 267.872 C 177.288 267.732,177.366 261.101,177.322 253.137 L 177.241 238.658 163.888 253.312 M199.389 250.093 C 199.264 255.746,199.245 260.455,199.347 260.557 C 199.449 260.660,199.533 259.632,199.535 258.275 L 199.537 255.807 205.477 249.290 C 211.688 242.475,211.807 242.267,209.509 242.243 C 208.134 242.228,203.668 241.232,201.368 240.426 L 199.618 239.814 199.389 250.093 M199.029 270.616 C 199.029 272.759,199.079 273.636,199.140 272.564 C 199.201 271.493,199.201 269.739,199.140 268.667 C 199.079 267.595,199.029 268.472,199.029 270.616 M198.712 285.892 C 198.712 287.693,198.764 288.429,198.827 287.529 C 198.890 286.629,198.890 285.156,198.827 284.256 C 198.764 283.355,198.712 284.092,198.712 285.892 M260.773 292.284 C 260.773 296.228,260.818 297.798,260.872 295.774 C 260.926 293.749,260.926 290.522,260.872 288.603 C 260.817 286.683,260.773 288.340,260.773 292.284 M129.575 290.959 L 126.592 294.154 126.585 295.800 C 126.566 300.442,128.162 311.602,129.687 317.482 C 130.883 322.095,133.176 328.033,133.733 327.958 C 133.828 327.946,139.587 321.679,146.532 314.031 L 159.158 300.127 159.341 301.817 C 159.442 302.747,159.547 300.236,159.575 296.238 C 159.607 291.723,159.504 288.741,159.303 288.366 C 158.992 287.784,158.512 287.763,145.770 287.763 L 132.559 287.763 129.575 290.959 M198.402 302.260 C 198.403 304.147,198.454 304.878,198.516 303.886 C 198.578 302.894,198.577 301.350,198.515 300.456 C 198.452 299.562,198.401 300.374,198.402 302.260 M261.341 304.443 C 261.345 305.129,261.409 305.372,261.483 304.985 C 261.558 304.597,261.555 304.036,261.477 303.738 C 261.399 303.440,261.338 303.757,261.341 304.443 M261.335 311.146 C 261.335 311.746,261.399 311.991,261.478 311.691 C 261.556 311.391,261.556 310.900,261.478 310.600 C 261.399 310.300,261.335 310.546,261.335 311.146 M136.867 333.067 C 136.867 333.121,137.323 333.577,137.880 334.080 L 138.893 334.996 137.978 333.983 C 137.124 333.038,136.867 332.826,136.867 333.067 M211.458 348.479 C 213.815 348.532,217.673 348.532,220.031 348.479 C 222.389 348.426,220.460 348.383,215.744 348.383 C 211.029 348.383,209.100 348.426,211.458 348.479 M293.687 358.691 C 293.473 358.948,293.105 359.158,292.869 359.158 C 292.633 359.158,292.440 359.283,292.440 359.436 C 292.440 359.589,292.083 359.804,291.647 359.913 C 291.168 360.033,290.941 360.250,291.072 360.463 C 291.208 360.683,291.148 360.726,290.909 360.579 C 290.701 360.450,290.293 360.533,290.004 360.764 C 289.225 361.387,288.373 361.845,283.374 364.333 C 266.264 372.846,250.134 378.237,232.268 381.412 C 226.117 382.505,226.479 382.450,222.459 382.891 L 218.882 383.284 218.794 391.330 C 218.746 395.756,218.788 399.377,218.888 399.377 C 218.988 399.377,219.155 399.291,219.259 399.187 C 219.363 399.083,220.458 398.944,221.693 398.878 C 235.277 398.149,259.408 392.072,276.072 385.185 C 280.906 383.187,289.847 378.976,292.128 377.623 C 292.899 377.165,293.640 376.823,293.773 376.863 C 293.907 376.902,294.097 376.724,294.196 376.466 C 294.295 376.208,294.466 376.053,294.577 376.122 C 294.687 376.190,294.739 372.191,294.691 367.235 C 294.606 358.499,294.512 357.696,293.687 358.691 " stroke="none" fill="#945fe4" fill-rule="evenodd"></path></g></svg>